<?xml version="1.0" standalone="no"?>
<!DOCTYPE svg PUBLIC "-//W3C//DTD SVG 20010904//EN"
 "http://www.w3.org/TR/2001/REC-SVG-20010904/DTD/svg10.dtd">
<svg version="1.0" xmlns="http://www.w3.org/2000/svg"
 width="864.000000pt" height="864.000000pt" viewBox="0 0 864.000000 864.000000"
 preserveAspectRatio="xMidYMid meet">
<metadata>
Created by potrace 1.14, written by Peter Selinger 2001-2017
</metadata>
<g transform="translate(0.000000,864.000000) scale(0.100000,-0.100000)"
fill="#000000" stroke="none">
<path d="M144 7069 c-48 -21 -96 -65 -120 -110 -18 -33 -19 -83 -19 -1164 0
-1031 1 -1133 16 -1160 32 -57 73 -94 129 -114 54 -19 84 -20 1138 -19 668 0
1100 4 1128 10 65 14 137 85 156 153 12 42 14 231 13 1145 l0 1095 -25 50
c-27 55 -46 75 -105 108 l-40 22 -1116 1 c-1035 0 -1118 -1 -1155 -17z"/>
<path d="M3121 7078 c-72 -19 -141 -86 -160 -153 -8 -28 -10 -362 -8 -1150 2
-1019 3 -1113 19 -1141 23 -42 70 -94 85 -94 7 0 13 -5 13 -10 0 -6 3 -9 8 -8
4 1 25 -3 47 -9 28 -8 378 -11 1130 -11 1199 1 1133 -3 1204 62 18 17 43 51
54 76 21 45 21 53 22 1139 0 841 -3 1106 -12 1143 -16 61 -68 119 -131 145
-46 19 -80 20 -1142 20 -625 0 -1110 -4 -1129 -9z"/>
<path d="M6074 7074 c-69 -17 -111 -52 -145 -119 l-29 -60 2 -1115 3 -1115 22
-42 c28 -52 82 -96 136 -113 33 -10 287 -12 1139 -12 603 0 1101 3 1107 6 6 4
20 9 31 11 50 10 118 90 137 160 7 27 10 385 9 1135 -1 1054 -2 1097 -20 1135
-27 55 -85 108 -137 125 -36 11 -245 13 -1128 14 -747 1 -1098 -2 -1127 -10z"/>
<path d="M3113 4125 c-77 -28 -133 -85 -153 -155 -6 -21 -10 -461 -10 -1131 0
-1066 0 -1098 19 -1142 24 -56 63 -97 116 -123 39 -18 74 -19 1150 -21 l1110
-2 51 23 c58 27 87 54 117 111 21 40 21 40 22 1150 1 1062 0 1112 -18 1155
-22 55 -59 95 -112 123 l-40 21 -1112 1 c-745 1 -1120 -3 -1140 -10z"/>
</g>
</svg>
